<svg width="262" height="277" viewBox="0 0 262 277" fill="none" xmlns="http://www.w3.org/2000/svg">
<path d="M57.2938 276.619H57.2626C52.633 276.556 48.0132 276.179 43.4363 275.492C41.8734 275.287 40.4147 275.082 39.5082 275.041C37.6745 274.939 35.7157 274.898 33.861 274.898C30.4227 274.795 26.974 275.103 23.5981 275.789C22.3783 276.139 21.1177 276.336 19.8472 276.373C18.7 276.389 17.5707 276.091 16.5861 275.512C14.1135 274.229 11.563 273.097 8.94877 272.121C6.98561 271.267 4.88213 270.768 2.73892 270.646C2.32216 269.837 -1.19952 262.634 0.425866 257.717C1.68658 253.618 4.39558 250.115 8.06314 247.809C10.1886 246.754 10.9076 246.447 11.0326 246.396C11.0414 246.316 11.033 246.236 11.0079 246.16C10.9827 246.084 10.9414 246.015 10.8867 245.955C10.7566 245.839 10.6029 245.752 10.4358 245.699C10.2688 245.646 10.0922 245.628 9.91776 245.648C9.11177 245.764 8.35428 246.096 7.72972 246.611L7.70888 246.631C7.36556 246.897 6.97769 247.102 6.56277 247.236H6.45858C6.38566 247.239 6.3133 247.221 6.25037 247.186C6.18745 247.149 6.13669 247.095 6.10433 247.031C6.04429 246.679 6.06759 246.319 6.17241 245.978C6.27723 245.636 6.46074 245.324 6.70864 245.064C8.4742 243.066 10.6492 241.456 13.0912 240.343C15.5332 239.228 18.187 238.634 20.8788 238.599L21.6185 238.609C25.1089 238.845 28.5681 239.388 31.9544 240.218C34.6321 240.915 37.3723 241.335 40.1438 241.468C40.894 241.468 41.6442 241.406 42.3839 241.283C50.9069 239.808 64.0142 231.919 73.454 225.024C80.289 220.025 87.1761 214.011 94.4591 207.649C102.732 200.426 111.286 192.947 120.851 185.97C139.136 172.702 152.588 164.947 155.859 163.277L158.402 162.006C159.215 161.668 159.985 161.248 160.694 160.736C160.975 160.5 161.079 160.357 161.038 160.265C161.017 160.193 160.892 160.162 160.674 160.162C159.806 160.232 158.946 160.387 158.11 160.623C155.172 161.34 141.679 165.521 136.01 169.465C133.041 171.432 130.385 173.809 128.102 176.524V176.493C128.832 172.661 130.625 169.096 133.291 166.207C137.751 161.484 138.241 160.982 139.095 160.367C139.428 160.142 139.595 159.927 139.543 159.793C139.522 159.722 139.438 159.681 139.324 159.681C138.893 159.733 138.48 159.881 138.116 160.111C136.699 160.941 129.645 167.928 126.988 171.76L126.947 171.821C124.393 175.54 122.987 177.589 114.651 178.931C104.379 180.571 98.2621 182.527 95.4385 185.119C93.5011 186.832 91.9105 188.891 90.7498 191.185C90.6561 191.287 90.1976 191.83 89.8121 191.83C89.7443 191.829 89.6784 191.807 89.6228 191.769C89.5671 191.731 89.5242 191.677 89.4995 191.615C89.3983 191.361 89.3556 191.088 89.3745 190.816C89.3745 190.713 89.51 180.694 100.492 172.61C105.784 168.674 111.123 164.797 116.506 160.982C117.444 160.326 117.882 159.855 117.798 159.609C117.746 159.466 117.517 159.384 117.11 159.384C116.985 159.384 116.87 159.384 116.767 159.404C115.183 159.507 104.242 161.627 99.2728 165.459C96.9708 167.139 94.7784 168.959 92.7087 170.909C92.542 170.951 92.3658 170.937 92.2085 170.868C92.1155 170.825 92.0335 170.763 91.9689 170.684C91.8207 170.403 91.7323 170.096 91.7091 169.78C91.6857 169.466 91.7281 169.149 91.8334 168.85C92.0418 167.908 93.9694 159.507 101.232 154.917C105.409 152.315 109.879 150.204 114.537 148.596L114.808 142.315L114.724 142.274C111.453 140.594 100.554 134.959 97.887 132.849C94.9696 130.554 91.6668 127.941 94.1986 113.772C96.7513 99.1525 96.8763 96.7859 96.793 95.7101C96.5874 95.1837 96.2874 94.698 95.9073 94.2758C94.3444 92.1551 91.4167 88.2312 92.4378 82.207C93.1046 77.8631 94.6258 73.6728 96.8763 69.8719V70.0153C96.7721 72.8635 96.5325 79.9326 96.6367 84.0511C96.793 89.0303 96.8868 92.0424 98.3767 93.7635C98.7316 94.1881 99.1295 94.5761 99.5645 94.9212C100.013 95.2798 100.221 95.4335 100.617 96.581C101.034 97.8104 99.6478 104.511 98.408 110.422L98.3975 110.504C97.835 113.209 97.3035 115.76 97.0327 117.42C96.8868 118.301 96.7096 119.171 96.5429 120.022L96.5012 120.227C95.9386 122.993 95.449 125.401 96.3241 126.456C96.5172 126.665 96.7569 126.828 97.0244 126.93C97.2919 127.034 97.5799 127.075 97.8662 127.05C98.0368 127.049 98.2073 127.039 98.3767 127.019C101.294 126.661 101.555 126.056 101.867 125.298C101.996 124.948 102.19 124.625 102.44 124.345C102.921 123.879 103.493 123.513 104.121 123.271C104.75 123.028 105.423 122.912 106.098 122.931C106.566 122.931 107.035 122.993 107.493 123.116C107.983 123.259 108.41 123.423 108.827 123.587C109.484 123.894 110.203 124.079 110.932 124.11C111.274 124.11 111.615 124.062 111.943 123.966C112.398 123.848 112.868 123.793 113.339 123.802C114.526 123.802 115.943 124.11 116.36 124.96C116.642 125.554 116.412 126.312 115.651 127.214C114.603 128.399 113.256 129.294 111.745 129.806C110.181 130.451 109.161 130.871 109.838 132.572C110.911 135.205 121.84 142.182 128.311 142.182C129.32 142.222 130.321 141.98 131.197 141.485C133.146 140.287 134.885 139.334 136.147 138.627C139.522 136.773 141.22 135.84 141.408 133.976C141.391 133.403 141.259 132.84 141.02 132.317C140.781 131.795 140.437 131.324 140.012 130.933C139.392 130.237 138.639 129.67 137.795 129.264C136.951 128.857 136.032 128.621 135.093 128.566C134.379 128.56 133.676 128.736 133.052 129.079C129.988 130.718 125.029 132.48 121.382 132.48C120.823 132.486 120.264 132.434 119.715 132.326C117.079 131.814 115.828 130.789 115.881 130.349C115.881 130.216 116.016 130.144 116.235 130.144C117.763 130.647 119.413 130.659 120.948 130.181C122.484 129.702 123.825 128.757 124.779 127.48C126.092 125.954 131.228 122.911 137.177 119.376L137.199 119.356C147.086 113.485 159.392 106.181 162.621 101.058C165.424 96.5912 164.33 88.5795 163.361 81.5103C162.538 75.4964 161.829 70.3124 163.653 68.5298C166.508 65.7123 182.772 61.604 193.525 58.8993L193.577 58.8788C197.432 57.9158 200.745 57.0757 202.225 56.5942C207.466 54.9549 212.071 51.7789 215.426 47.476C218.551 43.3165 219.625 38.6959 218.448 34.4851C216.999 29.3831 209.414 20.9616 202.527 16.8225C202.475 16.802 202.464 16.7611 202.464 16.7611C202.464 16.7611 202.517 16.7098 202.735 16.7098C204.548 16.7098 213.654 18.5949 222.229 24.5678C227.096 27.9078 231.159 32.2517 234.138 37.2923C237.806 43.7672 239.744 51.0618 239.765 58.4793C239.911 65.8968 244.964 72.8634 250.32 80.2297C256.415 88.6307 262.718 97.3084 261.291 106.836C259.259 120.319 245.214 130.605 240.452 133.166C243.851 133.072 247.252 133.201 250.632 133.556C256.134 134.15 261.416 137.51 262 137.889C261.614 137.941 223.011 142.582 209.935 148.831L208.331 149.589C187.18 159.681 160.85 172.231 131.249 194.658C126.685 198.121 122.539 201.317 118.527 204.411L118.496 204.432L117.382 205.282L117.371 205.292C97.3348 220.742 82.8625 231.909 56.2936 245.76C47.7811 250.207 39.7271 251.569 34.3924 252.461C33.1288 252.659 31.871 252.89 30.6207 253.157C25.9841 254.264 20.91 256.794 20.0348 259.94C19.6389 261.497 19.5138 263.116 19.6702 264.724C19.679 265.853 20.0673 266.948 20.7746 267.839C21.0455 268.146 21.4205 268.331 21.8269 268.382C22.3166 268.382 22.7229 267.941 23.2335 266.876C23.4746 266.136 23.6147 265.368 23.6503 264.591C23.9003 262.255 24.2338 259.059 26.5676 257.542C28.839 256.047 30.8708 255.852 34.5488 255.514H34.6113C36.3513 255.34 38.5185 255.135 41.2587 254.745C45.8744 254.11 50.4276 253.086 54.8558 251.682H54.887C55.5747 251.457 56.0748 251.303 56.4187 251.221C56.7426 251.142 57.0748 251.101 57.4084 251.098C57.9919 251.098 58.367 251.242 58.4504 251.508C58.5129 251.754 58.3462 252.184 57.1793 252.932C56.9709 253.055 56.7625 253.188 56.5541 253.342C52.7302 256.026 48.4167 257.952 43.8426 258.987L39.5395 259.807C35.9345 260.452 33.7568 260.841 32.4857 261.651C31.963 262.041 31.529 262.534 31.2114 263.098C30.8938 263.663 30.6997 264.287 30.6416 264.929H30.7144C32.4128 264.765 33.9444 264.683 35.1739 264.683C35.9032 264.663 36.6117 264.714 37.3306 264.837C38.2476 265.052 39.1541 265.339 40.0396 265.687L40.1334 265.728C43.5531 267.115 47.1907 267.914 50.886 268.085H50.9589C52.4176 268.218 54.0847 268.361 55.856 268.361C61.9408 268.361 66.5148 266.661 70.2553 263.003L70.7659 262.501L70.7763 262.491C75.8609 257.491 91.3437 242.277 113.954 233.374C119.976 231.007 126.769 229.44 133.948 227.78C142.314 225.844 150.962 223.856 159.131 220.393C167.7 216.974 175.231 211.445 181.001 204.339C188.186 195.288 198.026 188.626 209.189 185.257C220.352 181.887 232.299 181.971 243.412 185.499C247.778 186.953 250.997 188.869 251.601 190.365C248.163 189.955 244.704 189.75 241.234 189.74C229.94 189.74 220.802 192.271 213.279 197.485C206.59 202.126 201.808 208.386 197.182 214.441C190.806 222.781 184.21 231.417 172.593 235.567C168.998 236.806 163.935 237.564 157.526 238.517L157.443 238.527C147.409 240.023 134.917 241.888 120.976 246.631C104.722 252.112 89.7183 260.698 76.8611 271.916C71.9953 275.031 65.4 276.619 57.2938 276.619ZM17.6488 249.121C10.1261 249.121 6.98996 256.856 6.9587 256.928C6.77534 257.55 6.74011 258.205 6.85575 258.844C6.97139 259.481 7.23478 260.084 7.62553 260.606C7.79335 260.908 8.02862 261.169 8.31371 261.37C8.59881 261.571 8.92632 261.705 9.27176 261.763C9.48719 261.747 9.69217 261.665 9.8583 261.53C10.0244 261.394 10.1435 261.21 10.1991 261.005C12.0954 256.415 16.1171 253.342 18.5136 251.498C19.7222 250.576 20.5245 249.961 20.4411 249.623C20.4203 249.51 20.2849 249.418 20.0452 249.377C19.2576 249.21 18.4545 249.124 17.6488 249.121ZM183.064 73.4167V73.4372C187.805 85.2498 187.44 99.2242 186.315 108.865C185.566 115.952 184.051 122.942 181.793 129.714C180.491 132.634 171.541 149.477 171.457 149.641C175.086 146.71 178.435 143.46 181.459 139.928C186.315 134.314 192.65 125.38 195.254 114.694C196.13 111.078 196.005 103.773 190.461 89.5118C188.335 84.0021 185.864 78.6269 183.064 73.4167ZM248.111 98.9988C246.981 110.067 241.9 120.387 233.785 128.136L232.711 129.212L232.701 129.222C230.8 131.36 228.571 133.192 226.095 134.652C230.274 133.919 234.495 133.44 238.733 133.218C241.984 128.382 244.495 123.106 246.194 117.543C247.767 112.563 249.372 105.3 248.111 98.9988ZM202.09 66.6651C203.236 67.7409 217.656 88.5385 218.521 90.3314C222.074 97.8923 225.147 106.027 223.543 114.305C222.261 120.759 218.198 127.03 211.112 133.474C213.894 132.121 218.926 129.519 221.385 127.245C222.813 125.944 226.772 120.79 229.2 113.926C231.326 107.943 232.795 99.0295 227.804 90.5671C226.616 87.9648 223.241 82.4631 214.03 74.7793C208.32 70.0153 203.214 66.8393 202.09 66.6651ZM172.635 103.281C172.061 103.281 169.112 107.277 165.372 112.338C159.808 119.868 152.181 130.185 148.67 132.203C148.878 132.121 169.894 124.192 172.395 117.409C174.302 112.225 173.363 104.839 172.707 103.333L172.686 103.292L172.635 103.281ZM88.2805 153.308C87.9502 153.24 87.6424 153.092 87.3845 152.878C85.8216 151.782 77.5592 143.637 74.673 135.174C72.8497 129.939 73.1935 123.392 73.4644 118.126V118.065C73.6311 114.725 73.777 111.846 73.3081 110.197C72.6414 108.363 71.8333 106.582 70.8908 104.869C68.036 99.2242 64.1288 91.4891 64.5769 84.5839C65.1603 76.1829 70.943 67.3618 74.7772 61.5221L74.9336 61.2762C76.5942 58.6337 78.3139 56.0274 80.091 53.4592L80.1952 53.2952L80.2161 53.2747C83.7899 47.9985 87.8429 42.0256 88.9682 38.7164C90.3227 34.5978 93.6568 25.3567 95.3864 23.0618L95.376 23.0721C95.0842 23.3384 93.313 25.0801 87.0719 32.5386C85.8528 33.9831 84.6755 35.356 83.5294 36.6776L83.3939 36.8313C77.903 43.1833 73.5686 48.2034 72.037 54.4222C70.12 62.065 65.8433 68.9365 59.7944 74.0929C55.0433 78.1499 56.5332 83.3852 58.2524 89.4606C58.6692 90.8744 59.0546 92.2678 59.3985 93.7021C61.3052 101.632 62.6493 104.531 67.1295 112.553C69.453 116.754 70.4325 121.538 69.9428 126.292C69.8429 126.942 69.8677 127.606 70.0157 128.249C69.8368 128.003 69.6732 127.746 69.526 127.48C68.4841 125.79 66.0356 121.815 64.5977 120.708C64.2955 120.483 57.3355 115.073 52.4906 100.29C51.9384 98.5787 51.3444 96.8985 50.886 95.5462C47.3331 85.301 44.5303 77.2074 51.8967 66.2246C58.7734 55.9487 60.5446 46.349 61.6178 40.6117C61.8574 39.3618 62.0554 38.2963 62.2638 37.4972C62.4096 36.8928 62.5243 36.278 62.6701 35.5404C63.4412 31.4628 64.4102 26.3915 73.2352 21.9451C79.2214 19.0496 85.4958 16.7699 91.9584 15.1423C94.3966 14.4559 96.6992 13.8105 99.0123 13.0216C104.931 11.0443 111.026 6.65934 115.058 3.74972L115.204 3.64727C116.128 2.96889 117.065 2.30964 118.017 1.66996C119.58 0.645444 122.591 0 125.893 0C132.114 0 137.386 2.12074 140.002 5.66556C143.138 9.93779 153.546 12.6323 162.715 14.9989L162.768 15.0091C170.352 16.966 177.51 18.8306 179.386 21.2689C184.449 27.8565 180.313 34.9564 178.292 37.1386C173.478 42.2612 150.556 61.3172 148.535 61.5221H148.41C148.27 61.5272 148.131 61.4969 148.007 61.4341C147.883 61.3713 147.778 61.278 147.701 61.1635C147.284 60.559 147.284 59.1657 147.711 57.1372C148.519 53.6309 149.769 50.2374 151.431 47.0354L151.442 47.015C153.046 43.7877 154.432 40.9908 153.682 37.3333C152.806 32.8971 149.68 29.1372 143.554 25.1416C137.032 21.105 125.54 17.9597 117.392 17.9597C115.494 17.8859 113.6 18.1639 111.807 18.7793C107.14 20.6645 103.212 24.0044 100.627 28.2663C98.5017 31.7497 97.1472 35.6428 96.6367 39.6692L96.5325 40.5093C95.6677 47.1686 94.5008 56.2868 88.1971 66.911L87.5095 68.079C81.3622 78.3446 77.6634 84.5327 79.1741 90.772C80.0389 93.9787 81.0913 97.1342 82.2999 100.238V100.259C84.1545 105.269 86.0508 110.443 86.3946 114.131C87.0198 120.319 86.3113 125.257 84.8631 131.691C83.4044 138.33 82.6438 142.653 84.5817 146.68C86.4155 150.532 87.3948 151.577 87.9158 152.13L87.9783 152.192L88.0409 152.263C88.3013 152.591 88.5305 153.042 88.4368 153.226C88.4224 153.252 88.4007 153.273 88.3743 153.288C88.3458 153.303 88.3131 153.31 88.2805 153.308ZM120.747 114.828C120.747 114.828 120.695 114.828 120.663 114.807C120.636 114.796 120.611 114.778 120.59 114.756C120.496 114.583 120.474 114.381 120.528 114.192C120.611 113.701 120.893 112.717 121.257 111.467V111.447C122.06 108.947 122.664 106.396 123.049 103.804V103.732C123.269 101.458 123.466 99.2959 122.705 98.4763C122.6 98.3649 122.469 98.2772 122.326 98.2189C122.183 98.1605 122.028 98.1331 121.872 98.1382C121.674 98.14 121.479 98.1675 121.288 98.2202C120.246 98.4763 119.163 98.6095 118.079 98.6197C117.106 98.6909 116.133 98.4732 115.288 97.9948C114.672 97.5337 114.371 97.0215 114.474 96.6424C114.547 96.3965 114.808 96.2429 115.204 96.2121C116.318 96.1404 121.028 94.8085 122.987 93.1591C124.446 92.0321 125.613 90.5978 126.405 88.9483C126.644 88.4053 126.707 88.0467 126.592 87.8726C126.556 87.8256 126.508 87.7886 126.454 87.7652C126.398 87.7418 126.339 87.7329 126.28 87.7394C125.841 87.7929 125.418 87.9359 125.04 88.1594C123.873 88.7434 121.778 90.1265 120.246 91.1305L120.205 91.1613C119.371 91.7145 118.652 92.1858 118.152 92.4931C117.319 92.9747 116.443 93.3947 115.538 93.7226C114.454 94.1528 113.526 94.5319 113.432 94.8495C113.432 95.5155 113.484 96.1814 113.62 96.8371V96.8781C113.943 98.9271 114.141 100.976 114.172 103.056C114.172 106.775 113.797 112.328 112.755 112.328C112.67 112.319 112.589 112.283 112.526 112.225C111.994 111.645 111.665 110.913 111.588 110.135C111.417 108.914 110.876 107.761 110.036 106.847C109.067 105.935 105.92 102.646 106.264 98.9988C106.348 98.128 106.441 97.4313 106.525 96.8678L106.535 96.7859C106.8 95.6708 106.775 94.5079 106.462 93.405C105.999 92.1439 106.018 90.7605 106.514 89.5118C106.611 89.3457 106.743 89.2022 106.901 89.0908C107.06 88.9795 107.24 88.9028 107.431 88.8664C107.547 88.8454 107.666 88.8351 107.785 88.8356C108.231 88.8596 108.666 88.9711 109.067 89.1635L109.087 89.1737L109.181 89.2147L109.359 89.2864C110.109 89.5938 110.911 89.7474 111.713 89.7372C112.22 89.7327 112.725 89.6881 113.224 89.604C117.079 88.9893 120.997 86.3461 122.987 84.8298C123.821 84.1843 124.841 83.2623 125.915 82.289L125.935 82.2685C128.436 80.0146 131.249 77.4533 133.062 77.0844C133.531 76.9922 133.979 76.9205 134.375 76.8693C135.356 76.8325 136.316 76.5807 137.184 76.1322C138.053 75.6837 138.809 75.05 139.397 74.2773C141.251 71.9361 143.393 69.83 145.774 68.0073L145.867 67.9253C146.628 67.3208 147.284 66.7983 147.681 66.7983C147.747 66.7954 147.813 66.8133 147.868 66.8495C148.316 67.1262 143.669 78.2217 136.282 90.772C128.457 104.111 124.039 111.18 122.977 112.686C122.07 113.936 121.163 114.828 120.747 114.828ZM91.2395 71.2857C91.1978 71.214 92.5523 68.1712 94.136 64.6571L94.209 64.4829C97.6994 56.6966 103.545 43.6546 103.982 41.1547C104.961 35.94 106.493 31.9956 108.681 29.086C110.13 27.1307 112.047 25.5576 114.263 24.5066C116.479 23.4556 118.925 22.9594 121.382 23.0618C121.83 23.0618 122.299 23.0721 122.768 23.1028C126.29 23.3384 145.795 29.8134 148.535 35.1716C150.243 38.5217 147.753 46.0314 144.711 51.5638C143.023 54.6373 141.397 56.6864 140.554 56.7888H140.45C139.283 56.7888 139.21 54.3607 139.136 51.5536C139.063 48.8591 138.98 45.8163 137.886 44.3205C135.927 41.6875 130.488 39.6897 125.216 39.6897C121.799 39.6897 119.049 40.5503 117.454 42.128L91.2395 71.2652V71.2857ZM154.599 62.6798C153.807 62.6798 153.328 62.4954 153.193 62.106C152.911 61.2864 154.213 59.8111 155.63 58.7252L156.704 57.926L156.724 57.9158L156.933 57.7519L156.964 57.7416C161.402 54.3812 166.029 51.2667 170.821 48.4083L171.968 47.7116C180.021 42.8042 183.699 40.5708 186.95 36.9132C189.514 34.0446 190.306 29.7007 189.076 25.2953C188.056 21.8671 186.129 18.7665 183.492 16.3103C180.089 13.1558 175.992 10.8171 171.519 9.47676C167.732 8.71607 163.881 8.30448 160.017 8.24734H159.965C153.578 7.96048 147.534 7.70435 142.189 3.99561C141.979 3.80314 141.823 3.5603 141.737 3.29088C141.652 3.02148 141.639 2.73476 141.7 2.45883C141.736 2.32895 141.815 2.21447 141.924 2.13302C142.034 2.05157 142.167 2.00766 142.304 2.00805C144.732 1.88511 147.253 1.63922 149.93 1.37285H150.014C153.973 0.901573 157.953 0.645444 161.934 0.573728C165.709 0.487952 169.474 1.00346 173.082 2.10025C173.999 2.20271 192.879 11.5053 200.85 20.5108L200.985 20.6645L201.61 21.3816C205.903 26.1558 213.071 34.1573 211.904 39.2286C211.426 41.7072 210.286 44.016 208.601 45.9187C206.882 47.8038 204.288 49.5762 200.183 51.6663C198.224 52.6805 189.451 55.2725 158.818 61.9114L157.985 62.0856L157.391 62.2187C156.479 62.4841 155.549 62.6389 154.599 62.6798Z" fill="black"/>
</svg>
