<svg width="39" height="40" viewBox="0 0 39 40" fill="none" xmlns="http://www.w3.org/2000/svg">
<path d="M38.9009 23.1649C38.9678 23.2317 39.0012 23.3104 39.0012 23.4011C39.0012 23.4918 38.9678 23.5706 38.9009 23.6374L36.6812 25.8572C36.6143 25.924 36.5379 25.9574 36.452 25.9574C36.3756 25.9574 36.2945 25.924 36.2086 25.8572L33.0437 22.6923L29.8788 25.8572C29.8119 25.924 29.7355 25.9574 29.6495 25.9574C29.5732 25.9574 29.492 25.924 29.4061 25.8572L27.1864 23.6374C27.129 23.5801 27.1004 23.499 27.1004 23.3939C27.1004 23.2985 27.129 23.2221 27.1864 23.1648L30.3513 19.9999L27.2007 16.835C27.1338 16.7777 27.1004 16.7013 27.1004 16.6058C27.1004 16.5008 27.1338 16.4197 27.2007 16.3624L29.406 14.1426C29.4729 14.0758 29.554 14.0423 29.6495 14.0423C29.745 14.0423 29.8214 14.0758 29.8787 14.1426L33.0436 17.3075L36.2085 14.1426C36.2753 14.0758 36.3541 14.0423 36.4448 14.0423C36.5355 14.0423 36.6142 14.0758 36.681 14.1426L38.9008 16.3624C38.9676 16.4292 39.0011 16.508 39.0011 16.5986C39.0011 16.6893 38.9676 16.768 38.9008 16.8349L35.736 19.9999L38.9009 23.1649V23.1649ZM0.75293 11.6289H10.2375L24.5055 0V40L10.2375 28.3711H0.75293V11.6289V11.6289Z" fill="black"/>
</svg>
