<svg width="41" height="40" viewBox="0 0 41 40" fill="none" xmlns="http://www.w3.org/2000/svg">
<g clip-path="url(#clip0_927_1579)">
<path d="M19.084 19L19.084 5.20607L14.2793 10.0523L3.22705 -1L14.2988 -12.0718L19.084 -7.32813L19.084 -21L5.29005 -21L10.1363 -16.1953L-0.916015 -5.14307L-11.9878 -16.2148L-7.24415 -21L-20.916 -21L-20.916 -7.20607L-16.1113 -12.0523L-5.05908 -1L-16.1308 10.0718L-20.916 5.32813L-20.916 19L-7.12208 19L-11.9683 14.1953L-0.916015 3.14306L10.1558 14.2148L5.41212 19L19.084 19Z" fill="black"/>
</g>
<g clip-path="url(#clip1_927_1579)">
<path d="M21.084 19L34.8779 19L30.0317 14.1953L41.084 3.14306L52.1558 14.2148L47.4121 19L61.084 19L61.084 5.20606L56.2793 10.0523L45.2271 -1L56.2988 -12.0718L61.084 -7.32814L61.084 -21L47.2901 -21L52.1363 -16.1953L41.084 -5.14307L30.0122 -16.2148L34.7559 -21L21.084 -21L21.084 -7.20607L25.8887 -12.0523L36.9409 -1L25.8692 10.0718L21.084 5.32813L21.084 19Z" fill="black"/>
</g>
<g clip-path="url(#clip2_927_1579)">
<path d="M21.084 21L21.084 34.7939L25.8887 29.9477L36.9409 41L25.8692 52.0718L21.084 47.3281L21.084 61H34.8779L30.0317 56.1953L41.084 45.1431L52.1558 56.2148L47.4121 61H61.084V47.2061L56.2793 52.0523L45.2271 41L56.2988 29.9282L61.084 34.6719V21L47.2901 21L52.1363 25.8047L41.084 36.8569L30.0122 25.7852L34.7559 21L21.084 21Z" fill="black"/>
</g>
<g clip-path="url(#clip3_927_1579)">
<path d="M19.084 21L5.29005 21L10.1363 25.8047L-0.916016 36.8569L-11.9878 25.7852L-7.24415 21L-20.916 21L-20.916 34.7939L-16.1113 29.9477L-5.05908 41L-16.1308 52.0718L-20.916 47.3281L-20.916 61L-7.12208 61L-11.9683 56.1953L-0.916016 45.1431L10.1558 56.2148L5.41212 61L19.084 61L19.084 47.2061L14.2793 52.0523L3.22705 41L14.2988 29.9282L19.084 34.6719L19.084 21Z" fill="black"/>
</g>
<defs>
<clipPath id="clip0_927_1579">
<rect width="19" height="19" fill="white" transform="translate(19.084 19) rotate(-180)"/>
</clipPath>
<clipPath id="clip1_927_1579">
<rect width="19" height="19" fill="white" transform="translate(21.084 19) rotate(-90)"/>
</clipPath>
<clipPath id="clip2_927_1579">
<rect width="19" height="19" fill="white" transform="translate(21.084 21)"/>
</clipPath>
<clipPath id="clip3_927_1579">
<rect width="19" height="19" fill="white" transform="translate(19.084 21) rotate(90)"/>
</clipPath>
</defs>
</svg>
