<svg width="48" height="40" viewBox="0 0 48 40" fill="none" xmlns="http://www.w3.org/2000/svg">
<path d="M0.40332 11.6288H9.88784L24.1559 0V40L9.88784 28.3711H0.40332V11.6288ZM29.5167 9.73193C32.3208 12.536 33.7504 15.945 33.8054 19.9587C33.8054 23.8075 32.3758 27.1064 29.5167 29.8556L26.6301 26.8865C28.6095 24.9072 29.5992 22.5704 29.5992 19.8763C29.5992 17.1271 28.6095 14.7354 26.6301 12.701L29.5167 9.73193ZM34.4651 4.86596C38.5889 8.98967 40.6507 13.9656 40.6507 19.7938C40.6507 25.622 38.5889 30.6253 34.4651 34.8041L31.4136 31.7525C34.7126 28.5085 36.3621 24.5361 36.3621 19.835C36.3621 15.1341 34.7126 11.134 31.4136 7.83507L34.4651 4.86596ZM39.0013 0.329875C41.5305 2.8591 43.5098 5.80066 44.9394 9.15461C46.3689 12.5086 47.0837 16.0549 47.0837 19.7938C47.0837 23.5326 46.3689 27.0928 44.9394 30.4742C43.5098 33.8557 41.5305 36.8109 39.0013 39.3402L36.0322 36.3711C40.5958 31.8076 42.8776 26.2955 42.8776 19.835C42.8776 13.3746 40.5958 7.86253 36.0322 3.29898L39.0013 0.329875Z" fill="black"/>
</svg>
